<svg width="686" height="1056" viewBox="0 0 686 1056" fill="none" xmlns="http://www.w3.org/2000/svg">
<path d="M343.119 979C484.569 979 599.238 968.731 599.238 956.064C599.238 943.397 484.569 933.128 343.119 933.128C201.668 933.128 87 943.397 87 956.064C87 968.731 201.668 979 343.119 979Z" fill="#FFB340"/>
<path d="M305.367 633.11L272.057 552.464L262.064 259.105C262.064 259.105 203.216 279.451 188.041 300.907C151.03 354.178 244.668 672.323 244.668 672.323L231.344 851.002L206.547 880.597L218.02 917.591H253.921L273.907 637.919H305.367V633.11Z" fill="#E2E2E2"/>
<path d="M310.179 959.394L308.328 946.816L428.615 948.665C428.615 948.665 388.643 964.943 310.179 959.394Z" fill="#8E8E8E"/>
<path d="M309.809 917.591C309.809 917.591 307.958 936.827 308.328 942.006C308.328 947.186 308.328 947.186 308.328 947.186C308.328 947.186 371.248 956.434 428.615 949.035C397.156 933.498 354.222 922.03 354.222 922.03L353.482 912.042L309.809 917.591Z" fill="#011A2B"/>
<path d="M243.188 536.557L280.199 711.536C280.199 711.536 282.05 784.414 287.602 814.748C293.153 845.083 305.367 917.961 305.367 917.961L358.294 914.631L335.717 726.704L339.418 595.006L329.055 518.43L243.188 536.557Z" fill="#2BCCD1"/>
<path d="M298.705 865.949L347.93 814.158L343.119 775.685L292.043 829.325C294.264 840.793 296.485 853.741 298.705 865.949Z" fill="#2AB6BB"/>
<path d="M200.625 862.84L208.397 852.852L290.193 941.266C290.193 941.266 251.331 923.51 200.625 862.84Z" fill="#8E8E8E"/>
<path d="M230.974 833.985C230.974 833.985 215.8 846.193 212.098 849.523C208.397 853.222 208.397 853.222 208.397 853.222C208.397 853.222 245.409 905.013 290.193 941.267C279.459 907.972 258.363 868.759 258.363 868.759L265.025 861.36L230.974 833.985Z" fill="#011A2B"/>
<path d="M328.314 183.268C328.314 183.268 350.891 193.626 363.475 172.91C375.689 152.193 358.664 130.367 358.664 130.367C358.664 130.367 350.151 145.534 337.937 138.876C325.723 132.217 303.887 95.2231 267.986 107.801C232.085 120.009 244.298 171.06 252.811 181.788C261.324 192.146 328.314 183.268 328.314 183.268Z" fill="#5B2A12"/>
<path d="M377.169 490.315L317.211 517.69L337.937 599.446L362.365 674.913L223.942 826.956L262.804 871.719L442.309 688.23L377.169 490.315Z" fill="#2BCCD1"/>
<path d="M367.176 326.433L390.863 489.205C390.863 489.205 400.486 525.089 393.084 539.516C391.974 537.666 371.988 505.112 371.988 505.112L341.638 391.912L339.047 323.474L360.884 316.815L367.176 326.433Z" fill="#F9A56B"/>
<path d="M265.025 255.405C265.025 255.405 206.177 267.613 192.853 290.549C179.529 313.485 202.476 371.935 202.476 371.935L237.636 450.362L236.526 539.516C236.526 539.516 279.089 554.314 319.061 544.325C363.475 533.227 384.202 513.621 384.202 513.621C384.202 513.621 362.735 414.478 359.774 404.859C356.813 395.241 354.963 330.132 354.963 330.132L367.176 326.433C367.176 326.433 356.813 282.041 345.34 272.422C334.236 262.804 265.025 255.405 265.025 255.405Z" fill="#FBFBFB"/>
<path d="M265.025 206.944L248 257.995C248 257.995 271.687 279.821 297.225 277.972C299.075 279.081 313.14 234.689 313.14 234.689L265.025 206.944Z" fill="#F9A56B"/>
<path d="M267.986 176.979C267.986 176.979 255.772 156.263 247.259 169.58C238.747 182.898 255.772 198.805 255.772 198.805C255.772 198.805 258.733 248.007 313.51 252.816C342.749 197.695 341.268 175.499 341.268 175.499C341.268 175.499 316.471 174.02 294.264 145.904C273.537 155.153 293.524 178.829 267.986 176.979Z" fill="#FFB888"/>
<path d="M260.213 363.427L226.163 401.16L263.914 457.021C263.914 457.021 333.126 455.911 370.137 414.478C375.689 417.437 402.337 410.779 408.999 403.01C415.661 395.611 416.401 380.444 416.401 380.444L426.765 376.744V361.577L384.942 373.045L393.454 353.068H381.241L364.955 384.143L289.082 404.12L260.213 363.427Z" fill="#FFB888"/>
<path d="M385.312 372.675L412.7 314.225L452.302 310.526L427.135 361.577L385.312 372.675Z" fill="#011A2B"/>
<path d="M331.645 586.277L297.225 608.474L356.073 582.208L337.937 531.527L347.93 578.879L337.937 584.058L314.99 539.666L331.645 586.277Z" fill="#2AB6BB"/>
<path d="M477.411 189.582C485.42 187.058 492.322 181.812 496.837 173.998C506.382 157.475 500.72 136.346 484.192 126.809C467.664 117.273 446.524 122.937 436.979 139.459C432.464 147.274 431.369 155.871 433.187 164.065C433.058 164.288 433.281 164.417 433.376 164.769L433.47 165.121C433.659 165.825 433.753 166.178 433.942 166.882C438.566 184.137 428.971 197.654 428.971 197.654L439.915 203.969L450.859 210.284C450.859 210.284 457.774 195.221 475.039 190.595C475.743 190.406 476.096 190.312 476.8 190.123L477.153 190.028C477.058 189.676 477.282 189.805 477.411 189.582Z" fill="#FFC773"/>
<path d="M483.251 128.947C467.617 119.926 447.535 125.307 438.506 140.936C434.25 148.304 433.284 156.677 434.913 164.167C434.784 164.39 435.008 164.519 434.879 164.742L434.973 165.094C434.938 165.669 435.256 166.15 435.574 166.632C439.785 183.053 432.141 196.802 432.141 196.802C432.141 196.802 439.065 200.797 440.851 201.828C461.632 190.598 441.045 131.386 483.251 128.947Z" fill="#DBA451"/>
<path d="M433.447 227.024L422.95 220.967C419.823 219.162 418.785 215.289 420.591 212.163L428.975 197.649L450.864 210.279L442.479 224.793C440.674 227.919 436.574 228.828 433.447 227.024Z" fill="#A8A8A8"/>
<path d="M426.471 227.76C423.344 225.956 421.274 223.868 421.79 222.975L422.822 221.189L433.99 227.633L433.087 229.196C432.571 230.089 429.598 229.565 426.471 227.76Z" fill="#545454"/>
<path d="M448.671 214.077L426.264 202.338L427.296 200.552L448.671 214.077Z" fill="#7A7A7A"/>
<path d="M423.814 206.58L445.318 219.882L446.221 218.319L423.814 206.58Z" fill="#7A7A7A"/>
<path d="M442.739 224.347L420.332 212.608L421.235 211.045L442.739 224.347Z" fill="#7A7A7A"/>
<path opacity="0.2" d="M488.35 175.313C498.175 163.293 496.392 145.591 484.369 135.774C472.346 125.957 454.634 127.742 444.809 139.761C434.984 151.781 436.766 169.483 448.79 179.3C460.813 189.118 478.525 187.332 488.35 175.313Z" fill="white"/>
<path d="M474.596 161.464L473.926 161.077L446.843 207.961L447.513 208.348L474.596 161.464Z" fill="#303030"/>
<path d="M460.077 153.085L459.407 152.699L432.323 199.583L432.993 199.97L460.077 153.085Z" fill="#303030"/>
<path d="M461.165 159.965L460.942 159.836L459.149 153.145C459.055 152.793 459.184 152.57 459.407 152.699C459.759 152.604 459.983 152.733 459.854 152.956L461.646 159.647C461.741 160 461.612 160.223 461.389 160.094C461.517 159.871 461.389 160.094 461.165 159.965Z" fill="#665333"/>
<path d="M463.176 161.125C462.952 160.996 462.952 160.996 463.081 160.773L463.299 155.242C463.428 155.019 463.557 154.796 463.78 154.924C464.003 155.053 464.227 155.182 464.098 155.405L463.88 160.936C463.88 160.936 463.528 161.031 463.176 161.125Z" fill="#665333"/>
<path d="M464.963 162.156C464.739 162.028 464.739 162.028 464.868 161.804L465.086 156.273C465.215 156.05 465.344 155.827 465.567 155.956C465.79 156.085 466.014 156.213 465.885 156.437L465.667 161.968C465.667 161.968 465.538 162.191 464.963 162.156C465.186 162.285 465.186 162.285 464.963 162.156Z" fill="#665333"/>
<path d="M466.973 163.316C466.75 163.188 466.75 163.188 466.879 162.964L467.096 157.433C467.225 157.21 467.354 156.987 467.577 157.116C467.801 157.245 468.024 157.373 467.895 157.597L467.678 163.128C467.678 163.128 467.549 163.351 466.973 163.316C467.196 163.445 466.973 163.316 466.973 163.316Z" fill="#665333"/>
<path d="M468.983 164.477C468.76 164.348 468.76 164.348 468.889 164.124L469.106 158.594C469.235 158.37 469.364 158.147 469.588 158.276C469.811 158.405 470.034 158.534 469.905 158.757L469.688 164.288C469.688 164.288 469.336 164.382 468.983 164.477Z" fill="#665333"/>
<path d="M461.165 159.965C460.942 159.836 460.848 159.484 460.848 159.484L462.852 154.984C462.981 154.761 463.333 154.667 463.333 154.667C463.556 154.795 463.651 155.148 463.651 155.148L461.647 159.647C461.741 160 461.389 160.094 461.165 159.965Z" fill="#663333"/>
<path d="M463.176 161.125C462.952 160.996 462.858 160.644 462.858 160.644L464.991 155.921C465.12 155.698 465.472 155.604 465.472 155.604C465.696 155.732 465.79 156.085 465.79 156.085L463.786 160.584C463.751 161.16 463.399 161.254 463.176 161.125Z" fill="#663333"/>
<path d="M464.963 162.156C464.74 162.027 464.645 161.675 464.645 161.675L466.649 157.176C466.778 156.952 467.13 156.858 467.13 156.858C467.354 156.987 467.448 157.339 467.448 157.339L465.444 161.839C465.538 162.191 465.41 162.414 464.963 162.156C465.186 162.285 465.186 162.285 464.963 162.156Z" fill="#663333"/>
<path d="M466.973 163.316C466.75 163.188 466.656 162.835 466.656 162.835L468.659 158.336C468.788 158.112 469.141 158.018 469.141 158.018C469.364 158.147 469.458 158.499 469.458 158.499L467.455 162.999C467.549 163.351 467.197 163.445 466.973 163.316Z" fill="#663333"/>
<path d="M468.984 164.477C468.984 164.477 468.76 164.348 468.984 164.477C468.666 163.996 468.795 163.773 469.018 163.901L474.149 161.206C474.278 160.982 474.502 161.111 474.725 161.24C474.948 161.369 474.819 161.592 474.69 161.815L469.559 164.511C469.336 164.382 468.984 164.477 468.984 164.477Z" fill="#663333"/>
<path d="M495.632 107.518C494.739 107.002 493.459 107.156 492.943 108.05L485.978 120.106C485.462 120.999 485.745 122.055 486.638 122.571C487.532 123.086 488.589 122.803 489.105 121.91L496.069 109.854C496.809 109.09 496.525 108.033 495.632 107.518Z" fill="#FFC773"/>
<path d="M523.53 143.262C523.247 142.206 522.131 141.561 521.074 141.845L507.332 145.526C506.275 145.81 505.63 146.926 506.042 147.759C506.325 148.816 507.442 149.46 508.276 149.048L522.017 145.366C523.169 145.435 523.814 144.319 523.53 143.262Z" fill="#FFC773"/>
<path d="M517.922 188.548C518.438 187.655 518.284 186.375 517.39 185.86L505.328 178.9C504.435 178.384 503.377 178.667 502.861 179.56C502.345 180.454 502.629 181.51 503.522 182.026L515.584 188.986C516.349 189.725 517.406 189.441 517.922 188.548Z" fill="#FFC773"/>
<path d="M482.156 216.432C483.213 216.149 483.858 215.033 483.575 213.976L479.895 200.242C479.612 199.186 478.495 198.541 477.661 198.953C476.604 199.237 475.959 200.353 476.372 201.186L480.052 214.92C480.206 216.2 481.099 216.716 482.156 216.432Z" fill="#FFC773"/>
<path d="M408.95 175.082C409.233 176.139 410.35 176.783 411.407 176.5L425.148 172.818C426.205 172.535 426.85 171.419 426.438 170.585C426.155 169.529 425.038 168.885 424.204 169.297L410.463 172.978C409.183 173.133 408.667 174.026 408.95 175.082Z" fill="#FFC773"/>
<path d="M414.43 130.02C413.914 130.913 414.197 131.97 415.09 132.485L427.152 139.445C428.046 139.961 429.103 139.677 429.619 138.784C430.135 137.891 429.852 136.835 428.958 136.319L416.896 129.359C416.132 128.62 414.946 129.127 414.43 130.02Z" fill="#FFC773"/>
<path d="M450.324 101.912C449.267 102.196 448.622 103.312 448.905 104.369L452.585 118.103C452.868 119.159 453.985 119.804 454.819 119.391C455.876 119.108 456.521 117.992 456.109 117.159L452.557 103.201C452.498 102.274 451.381 101.629 450.324 101.912Z" fill="#FFC773"/>
<path d="M499.253 149.198C499.716 153.037 498.133 156.292 495.572 156.601C493.012 156.91 490.753 154.118 489.938 150.373C489.476 146.534 491.058 143.279 493.619 142.97C496.18 142.662 498.791 145.359 499.253 149.198Z" fill="white"/>
<path d="M490.478 158.721C491.44 179.221 475.894 186.028 475.894 186.028C475.894 186.028 494.954 180.355 496.483 160.697C494.533 160.465 492.677 160.585 490.478 158.721Z" fill="white"/>
<path d="M424.226 207.413C424.097 207.636 428.659 210.567 434.338 214.141C440.017 217.716 444.708 220.423 444.837 220.199C444.966 219.976 440.404 217.046 434.725 213.471C429.046 209.897 424.355 207.19 424.226 207.413Z" fill="#F2F2F2"/>
<path d="M426.23 202.914C426.101 203.137 430.921 205.621 436.857 208.749C442.794 211.876 447.743 214.137 447.872 213.913C448.001 213.69 443.181 211.207 437.244 208.079C431.308 204.951 426.23 202.914 426.23 202.914Z" fill="#F2F2F2"/>
<path d="M420.169 213.407C420.04 213.63 424.859 216.114 430.796 219.242C436.733 222.37 441.682 224.63 441.811 224.406C441.94 224.183 437.12 221.7 431.183 218.572C425.246 215.444 420.298 213.184 420.169 213.407Z" fill="#F2F2F2"/>
</svg>
