<svg width="686" height="1056" viewBox="0 0 686 1056" fill="none" xmlns="http://www.w3.org/2000/svg">
<path d="M46.9328 704.495L147.784 924.741C152.651 935.053 164.917 939.722 175.43 935.053L191.395 927.659L562.48 758C572.799 753.136 577.472 740.878 572.799 730.372L483.63 535.808L471.948 510.125C467.081 499.814 454.815 495.144 444.302 499.814L57.0568 676.867C46.7381 681.536 42.0655 693.988 46.9328 704.495Z" fill="#2BCCD1"/>
<path d="M137.583 902.318L562.419 707.925L512.654 599.31L87.8181 793.703L137.583 902.318Z" fill="#52DEE3"/>
<path d="M244.341 811.332L512.873 688.46L495.041 649.542L226.51 772.414L244.341 811.332Z" fill="#DCE9FF"/>
<path d="M97.3437 814.505L522.18 620.113L495.676 562.267L70.8401 756.66L97.3437 814.505Z" fill="#66F2F7"/>
<path d="M104.562 707.219L191.395 927.659L562.48 758C572.799 753.136 577.472 740.878 572.799 730.372L483.629 535.808L116.243 680.174C105.73 684.455 100.473 696.518 104.562 707.219Z" fill="#2AB6BB"/>
<path d="M595.545 637.555L593.708 638.2L596.741 646.828L598.577 646.183L595.545 637.555Z" fill="#2BCCD1"/>
<path d="M580.406 594.055L578.569 594.7L590.57 628.844L592.407 628.199L580.406 594.055Z" fill="#2BCCD1"/>
<path d="M130.456 680.952L532.108 540.088C543.011 536.391 554.887 542.034 558.586 552.735L638.994 781.347C642.694 792.243 637.047 804.111 626.339 807.808L224.493 948.867C213.59 952.563 201.714 946.921 198.015 936.22L117.606 707.413C113.907 696.712 119.553 684.844 130.456 680.952Z" fill="#2BCCD1"/>
<path d="M183.433 894.415L624.297 739.667L589.326 640.171L148.463 794.92L183.433 894.415Z" fill="#52DEE3"/>
<path d="M450.511 638.014L541.623 606.033L536.655 591.898L445.543 623.879L450.511 638.014Z" fill="white"/>
<path d="M527.162 798.703L600.271 773.041L597.691 765.698L524.581 791.361L527.162 798.703Z" fill="white"/>
<path d="M511.009 820.287L605.244 787.21L602.663 779.867L508.428 812.944L511.009 820.287Z" fill="white"/>
<path d="M225.061 920.615L272.27 904.049L266.658 888.079L219.449 904.645L225.061 920.615Z" fill="#FFB340"/>
<path d="M518.48 751.579L573.578 732.317C579.613 730.177 582.728 723.562 580.781 717.531C578.64 711.499 572.02 708.386 565.985 710.332L510.886 729.594C504.851 731.734 501.736 738.349 503.683 744.38C505.824 750.412 512.444 753.525 518.48 751.579Z" fill="white"/>
<path d="M424.248 784.655L479.346 765.393C485.382 763.253 488.497 756.638 486.55 750.606C484.408 744.575 477.789 741.462 471.753 743.408L416.655 762.669C410.62 764.81 407.504 771.425 409.451 777.456C411.593 783.488 418.213 786.601 424.248 784.655Z" fill="white"/>
<path d="M330.016 817.731L385.115 798.469C391.15 796.329 394.265 789.714 392.318 783.682C390.177 777.651 383.557 774.538 377.522 776.483L322.423 795.745C316.388 797.885 313.273 804.501 315.22 810.532C317.361 816.563 323.981 819.677 330.016 817.731Z" fill="white"/>
<path d="M235.785 850.807L290.883 831.545C296.919 829.405 300.034 822.79 298.087 816.758C295.945 810.727 289.326 807.614 283.29 809.559L228.192 828.821C222.157 830.961 219.041 837.576 220.988 843.608C223.13 849.639 229.75 852.752 235.785 850.807Z" fill="white"/>
<path d="M513.612 707.219L562.675 690.097C566.764 688.541 569.1 684.066 567.542 679.98L557.418 650.99C555.861 646.904 551.383 644.569 547.294 646.126L498.231 663.247C494.143 664.804 491.807 669.279 493.364 673.365L503.488 702.355C504.851 706.44 509.524 708.775 513.612 707.219Z" fill="#FFB340"/>
<path d="M225.077 737.376C220.988 737.376 216.705 736.403 213.006 734.652C206.192 731.345 201.13 725.702 198.599 718.698C196.068 711.694 196.457 703.911 199.767 697.101C203.077 690.292 208.723 685.233 215.732 682.704C222.741 680.174 230.528 680.563 237.343 683.871C244.157 687.179 249.219 692.821 251.75 699.825C254.281 706.83 253.892 714.612 250.582 721.422C247.272 728.232 241.626 733.29 234.617 735.82C231.307 736.792 228.192 737.376 225.077 737.376ZM225.077 682.704C222.157 682.704 219.236 683.287 216.316 684.26C209.696 686.595 204.245 691.459 201.324 697.685C198.209 704.106 197.82 711.304 200.156 717.92C202.493 724.535 207.36 729.983 213.59 732.901C220.015 736.014 227.219 736.403 233.838 734.068C240.458 731.734 245.909 726.87 248.829 720.644C251.945 714.223 252.334 707.024 249.998 700.409C247.661 693.794 242.794 688.346 236.564 685.428C232.865 683.676 228.971 682.704 225.077 682.704Z" fill="white"/>
<path d="M158.881 732.317C163.943 746.521 179.519 753.914 193.731 749.05C207.944 743.991 215.342 728.426 210.475 714.223C205.413 700.02 189.837 692.626 175.625 697.49C161.412 702.549 153.819 718.114 158.881 732.317Z" fill="white"/>
<path d="M286.098 288.727C350.367 288.727 402.467 236.853 402.467 172.863C402.467 108.874 350.367 57 286.098 57C221.829 57 169.729 108.874 169.729 172.863C169.729 236.853 221.829 288.727 286.098 288.727Z" fill="url(#paint0_linear)"/>
<path d="M286.098 279.049C344.999 279.049 392.747 231.508 392.747 172.863C392.747 114.219 344.999 66.6777 286.098 66.6777C227.197 66.6777 179.449 114.219 179.449 172.863C179.449 231.508 227.197 279.049 286.098 279.049Z" fill="url(#paint1_linear)"/>
<path d="M259.368 119.367H294.603C313.908 119.367 328.488 130.927 328.488 154.046C328.488 176.627 315.393 188.59 292.983 188.59H280.428V236.037H259.368V119.367ZM280.428 171.788H290.688C302.298 171.788 307.428 166.008 307.428 153.777C307.428 142.083 301.353 136.303 291.768 136.303H280.428V171.788Z" fill="url(#paint2_linear)"/>
<path d="M205.369 384.966C269.638 384.966 321.738 333.092 321.738 269.103C321.738 205.113 269.638 153.239 205.369 153.239C141.1 153.239 89 205.113 89 269.103C89 333.092 141.1 384.966 205.369 384.966Z" fill="url(#paint3_linear)"/>
<path d="M205.369 375.289C264.269 375.289 312.018 327.748 312.018 269.103C312.018 210.458 264.269 162.917 205.369 162.917C146.468 162.917 98.7198 210.458 98.7198 269.103C98.7198 327.748 146.468 375.289 205.369 375.289Z" fill="url(#paint4_linear)"/>
<path d="M178.639 215.472H213.874C233.179 215.472 247.758 227.032 247.758 250.151C247.758 272.732 234.664 284.695 212.254 284.695H199.699V332.142H178.639V215.472ZM199.699 267.893H209.959C221.569 267.893 226.699 262.113 226.699 249.882C226.699 238.188 220.624 232.408 211.039 232.408H199.699V267.893Z" fill="url(#paint5_linear)"/>
<path d="M480.496 420.451C544.765 420.451 596.865 368.577 596.865 304.588C596.865 240.598 544.765 188.724 480.496 188.724C416.227 188.724 364.127 240.598 364.127 304.588C364.127 368.577 416.227 420.451 480.496 420.451Z" fill="url(#paint6_linear)"/>
<path d="M480.496 410.773C539.397 410.773 587.145 363.232 587.145 304.588C587.145 245.943 539.397 198.402 480.496 198.402C421.596 198.402 373.847 245.943 373.847 304.588C373.847 363.232 421.596 410.773 480.496 410.773Z" fill="url(#paint7_linear)"/>
<path d="M453.766 250.957H489.001C508.306 250.957 522.886 262.516 522.886 285.635C522.886 308.217 509.791 320.179 487.381 320.179H474.826V367.627H453.766V250.957ZM474.826 303.512H485.086C496.696 303.512 501.826 297.733 501.826 285.501C501.826 273.807 495.751 268.027 486.166 268.027H474.826V303.512Z" fill="url(#paint8_linear)"/>
<path d="M364.127 438.866C428.396 438.866 480.496 386.992 480.496 323.002C480.496 259.013 428.396 207.139 364.127 207.139C299.859 207.139 247.758 259.013 247.758 323.002C247.758 386.992 299.859 438.866 364.127 438.866Z" fill="url(#paint9_linear)"/>
<path d="M364.127 429.188C423.028 429.188 470.776 381.647 470.776 323.002C470.776 264.357 423.028 216.816 364.127 216.816C305.227 216.816 257.478 264.357 257.478 323.002C257.478 381.647 305.227 429.188 364.127 429.188Z" fill="url(#paint10_linear)"/>
<path d="M337.398 269.506H372.632C391.937 269.506 406.517 281.065 406.517 304.184C406.517 326.766 393.422 338.728 371.012 338.728H358.457V386.176H337.398V269.506ZM358.457 321.927H368.717C380.327 321.927 385.457 316.147 385.457 303.916C385.457 292.222 379.382 286.442 369.797 286.442H358.457V321.927Z" fill="url(#paint11_linear)"/>
<defs>
<linearGradient id="paint0_linear" x1="78.6856" y1="63.1284" x2="630.571" y2="357.767" gradientUnits="userSpaceOnUse">
<stop stop-color="#FFD571"/>
<stop offset="0.2509" stop-color="#FFBD60"/>
<stop offset="0.7782" stop-color="#FF8035"/>
<stop offset="1" stop-color="#FF6421"/>
</linearGradient>
<linearGradient id="paint1_linear" x1="494.671" y1="270.899" x2="-67.4629" y2="4.1588" gradientUnits="userSpaceOnUse">
<stop stop-color="#FFD571"/>
<stop offset="0.2509" stop-color="#FFBD60"/>
<stop offset="0.7782" stop-color="#FFA235"/>
<stop offset="1" stop-color="#FF8A35"/>
</linearGradient>
<linearGradient id="paint2_linear" x1="191.86" y1="265.012" x2="365.382" y2="69.2702" gradientUnits="userSpaceOnUse">
<stop offset="0.0027027" stop-color="white"/>
<stop offset="0.367" stop-color="#FCFCFF"/>
<stop offset="1" stop-color="#F5F5FF"/>
</linearGradient>
<linearGradient id="paint3_linear" x1="-2.00369" y1="159.272" x2="549.882" y2="453.91" gradientUnits="userSpaceOnUse">
<stop stop-color="#FFD571"/>
<stop offset="0.2509" stop-color="#FFBD60"/>
<stop offset="0.7782" stop-color="#FF8035"/>
<stop offset="1" stop-color="#FF6421"/>
</linearGradient>
<linearGradient id="paint4_linear" x1="413.942" y1="367.138" x2="-148.192" y2="100.398" gradientUnits="userSpaceOnUse">
<stop stop-color="#FFD571"/>
<stop offset="0.2509" stop-color="#FFBD60"/>
<stop offset="0.7782" stop-color="#FFA235"/>
<stop offset="1" stop-color="#FF8A35"/>
</linearGradient>
<linearGradient id="paint5_linear" x1="111.131" y1="361.117" x2="284.653" y2="165.375" gradientUnits="userSpaceOnUse">
<stop offset="0.0027027" stop-color="white"/>
<stop offset="0.367" stop-color="#FCFCFF"/>
<stop offset="1" stop-color="#F5F5FF"/>
</linearGradient>
<linearGradient id="paint6_linear" x1="273.134" y1="194.831" x2="825.019" y2="489.47" gradientUnits="userSpaceOnUse">
<stop stop-color="#FFD571"/>
<stop offset="0.2509" stop-color="#FFBD60"/>
<stop offset="0.7782" stop-color="#FF8035"/>
<stop offset="1" stop-color="#FF6421"/>
</linearGradient>
<linearGradient id="paint7_linear" x1="689.069" y1="402.623" x2="126.935" y2="135.883" gradientUnits="userSpaceOnUse">
<stop stop-color="#FFD571"/>
<stop offset="0.2509" stop-color="#FFBD60"/>
<stop offset="0.7782" stop-color="#FFA235"/>
<stop offset="1" stop-color="#FF8A35"/>
</linearGradient>
<linearGradient id="paint8_linear" x1="386.258" y1="396.602" x2="559.78" y2="200.86" gradientUnits="userSpaceOnUse">
<stop offset="0.0027027" stop-color="white"/>
<stop offset="0.367" stop-color="#FCFCFF"/>
<stop offset="1" stop-color="#F5F5FF"/>
</linearGradient>
<linearGradient id="paint9_linear" x1="156.729" y1="213.27" x2="708.615" y2="507.908" gradientUnits="userSpaceOnUse">
<stop stop-color="#FFD571"/>
<stop offset="0.2509" stop-color="#FFBD60"/>
<stop offset="0.7782" stop-color="#FF8035"/>
<stop offset="1" stop-color="#FF6421"/>
</linearGradient>
<linearGradient id="paint10_linear" x1="572.7" y1="421.038" x2="10.5663" y2="154.298" gradientUnits="userSpaceOnUse">
<stop stop-color="#FFD571"/>
<stop offset="0.2509" stop-color="#FFBD60"/>
<stop offset="0.7782" stop-color="#FFA235"/>
<stop offset="1" stop-color="#FF8A35"/>
</linearGradient>
<linearGradient id="paint11_linear" x1="269.889" y1="415.151" x2="443.411" y2="219.409" gradientUnits="userSpaceOnUse">
<stop offset="0.0027027" stop-color="white"/>
<stop offset="0.367" stop-color="#FCFCFF"/>
<stop offset="1" stop-color="#F5F5FF"/>
</linearGradient>
</defs>
</svg>
