<svg width="686" height="1056" viewBox="0 0 686 1056" fill="none" xmlns="http://www.w3.org/2000/svg">
<path d="M273.891 841.08C273.891 841.08 277.554 901.369 278.469 922.987C278.469 923.901 279.08 924.814 279.995 925.423C283.963 927.859 294.951 935.471 300.751 937.298C297.698 937.907 262.598 948.869 263.819 935.471C264.734 924.205 251.61 868.484 244.895 845.648" fill="#FFE6CC"/>
<path d="M263.208 928.468C265.345 929.99 270.228 929.077 272.67 929.077C275.112 929.077 278.775 924.814 280.301 925.118C281.827 925.118 293.731 933.035 301.056 934.862C303.498 935.471 305.94 936.08 308.076 937.603C309.297 938.516 310.518 940.038 311.128 941.561C311.434 942.17 311.434 942.779 311.434 943.083C311.434 943.997 310.823 944.606 310.213 944.91C307.466 947.346 303.803 947.955 300.446 947.955C296.783 947.955 293.12 948.26 289.763 947.955C283.048 947.042 275.112 947.651 268.702 945.519C266.871 944.91 264.734 943.997 263.513 942.474C260.461 939.734 261.987 933.644 263.208 928.468Z" fill="#FFB340"/>
<path d="M116.09 866.048C116.09 866.048 93.8085 895.279 81.2943 911.721C80.6839 912.635 80.3786 913.853 80.6838 915.071C81.9047 919.942 85.5674 933.035 88.6197 938.212C85.8727 936.689 51.9927 919.942 61.4547 910.503C69.3905 902.282 78.5473 877.01 91.9772 852.042" fill="#FFE6CC"/>
<path d="M65.7278 904.718C66.6435 907.763 70.6114 911.112 72.748 912.33C76.1054 914.157 80.0734 913.244 80.989 914.462C81.9047 915.68 86.1779 929.686 90.451 936.385C91.9771 938.516 93.5032 940.648 94.1137 943.388C94.4189 945.215 94.4189 946.737 93.8085 948.564C93.5032 949.173 93.5032 949.782 92.8928 950.087C92.2823 950.696 91.6719 950.696 90.7562 950.696C87.0935 950.696 84.0413 948.869 81.2943 946.128C78.5472 943.693 75.495 941.561 73.3584 938.821C68.78 933.644 62.6756 928.468 59.0129 922.378C57.792 920.551 56.8763 918.725 56.8763 916.593C56.5711 912.33 61.4547 907.763 65.7278 904.718Z" fill="#FFB340"/>
<path d="M79.4629 876.096C83.736 885.84 89.2301 889.189 95.6398 889.798C97.1659 890.102 98.692 889.798 99.6077 889.493C124.331 856.609 161.568 809.718 164.621 795.711C167.978 785.359 172.862 766.176 178.05 744.253C181.408 729.942 184.765 714.413 187.818 699.189C193.312 672.699 197.585 611.192 199.416 596.881L155.464 579.526L128.604 574.349C124.941 586.529 123.415 590.792 123.415 590.792C122.194 592.618 121.279 594.445 120.363 595.968C101.439 629.766 109.375 647.122 114.869 674.221C120.973 704.974 129.52 744.253 130.435 779.269C114.564 798.756 87.704 850.519 79.4629 876.096Z" fill="#2BCCD1"/>
<path d="M153.327 651.689C164.01 670.872 184.155 705.279 201.248 733.292C206.742 742.122 211.93 750.648 216.509 757.651C213.762 780.487 236.654 841.08 248.557 867.266C260.461 872.138 276.333 866.962 278.164 862.09C275.417 826.16 270.533 769.83 264.734 748.212C263.513 730.551 238.485 634.942 222.918 594.446C221.698 591.705 220.782 588.965 219.866 586.833C219.866 586.833 200.332 591.401 183.239 590.792C165.536 590.183 149.054 584.398 147.223 583.789H146.918C146.307 585.615 145.391 587.747 144.781 589.574C138.982 609.061 141.118 629.462 153.327 651.689Z" fill="#2BCCD1"/>
<path d="M217.424 326.192C224.75 338.676 218.34 356.032 225.665 368.516C228.718 373.692 233.601 377.651 235.127 383.131C236.348 388.003 234.517 393.18 230.549 396.224C226.581 399.269 221.087 399.878 216.509 397.442C215.593 396.833 214.677 396.224 213.762 395.92C210.099 394.702 206.741 398.051 203.689 400.183C199.721 402.923 194.838 404.141 190.259 402.619C184.46 400.792 181.103 395.006 179.271 389.221C174.082 373.388 177.745 356.032 182.629 340.199C185.071 332.282 188.733 323.452 196.364 320.407" fill="#5B2A12"/>
<path d="M317.843 395.007C317.843 395.007 321.201 412.058 320.285 419.061C319.369 426.064 312.349 411.449 312.349 411.449L317.843 395.007Z" fill="#E1D1A5"/>
<path d="M326.084 373.388L323.643 370.952C323.032 370.343 322.422 370.038 321.811 370.038H299.225C298.004 370.038 297.088 370.952 296.783 371.865L282.437 423.628C282.132 425.151 283.353 426.978 284.879 426.978H307.771C308.992 426.978 309.907 426.064 310.213 425.151L324.558 374.301L326.084 373.388Z" fill="#7D777F"/>
<path d="M282.742 426.064L285.184 428.805L287.016 426.673L286.405 425.76L282.742 426.064Z" fill="#7D777F"/>
<path d="M309.907 429.718H287.016C285.184 429.718 283.963 428.195 284.574 426.369L298.919 374.606C299.225 373.388 300.14 372.779 301.361 372.779H324.253C326.084 372.779 327.305 374.301 326.695 376.128L312.349 427.891C312.044 428.804 311.128 429.718 309.907 429.718Z" fill="#594A5F"/>
<path d="M275.417 503.404C269.313 501.272 241.537 443.724 232.38 426.369C226.276 415.103 217.119 412.667 217.119 412.667C205.826 418.756 204.605 432.763 207.962 444.638C222.003 494.574 264.429 534.766 270.839 534.766C262.598 516.801 275.417 503.404 275.417 503.404Z" fill="#FFE4C9"/>
<path d="M320.285 419.061C319.98 427.587 316.317 436.112 315.707 438.244C315.707 438.548 315.707 438.548 315.707 438.548C314.791 440.07 314.181 441.897 313.57 444.029C304.108 475.391 297.088 513.452 292.815 521.369C292.815 521.369 285.184 550.599 260.766 527.154C260.156 521.064 301.056 434.59 301.056 433.676C294.341 419.67 302.887 409.013 310.518 404.446C312.654 402.923 314.181 403.532 315.707 404.141C315.401 404.445 320.59 409.317 320.285 419.061Z" fill="#FFE4C9"/>
<path d="M212.541 405.664C223.224 408.099 231.77 414.798 236.654 424.542C237.874 426.978 239.095 429.414 240.011 432.154C244.284 443.116 250.389 453.164 254.662 464.125C248.863 468.997 241.537 471.128 235.433 473.26C229.633 475.391 223.529 476.305 217.73 475.696C216.814 475.696 215.593 475.391 214.677 475.087C213.456 474.478 212.541 473.564 211.625 472.346C209.794 470.215 207.962 468.083 206.131 465.952C204.605 464.125 203.079 461.994 202.468 459.862C201.553 456.817 202.468 453.468 203.384 450.119" fill="white"/>
<path d="M222.918 435.503C222.613 434.894 222.003 434.59 221.392 434.285C220.171 433.981 218.951 434.59 218.34 435.503C217.73 436.417 217.73 437.635 217.73 438.853C217.73 443.42 218.34 447.683 219.866 451.946L218.34 475.087C223.834 475.391 229.633 474.782 234.822 472.651C237.264 471.737 240.011 470.824 242.758 469.606C240.622 456.817 231.77 445.856 222.918 435.503Z" fill="#F5F5F5"/>
<path d="M186.902 382.523C186.902 382.523 186.597 397.138 188.733 398.051C193.312 399.878 198.195 401.096 198.195 401.096V431.241L158.211 425.151L130.741 409.926C130.741 409.926 159.432 400.487 159.737 397.442C160.042 394.702 158.211 378.564 158.211 378.564" fill="#FFE4C9"/>
<path d="M115.174 593.532C116.7 594.75 118.837 595.664 121.279 596.577C147.223 606.625 212.846 603.58 223.529 594.446C226.581 593.837 217.73 543.596 218.34 535.375C219.256 519.542 221.698 496.096 222.613 494.574C230.854 485.744 236.348 479.045 236.654 468.692C236.959 455.904 224.445 442.202 222.918 438.244C217.119 422.41 220.171 411.753 216.814 406.881C204.3 403.228 202.468 402.01 198.501 400.792C198.806 408.099 199.721 423.628 187.512 428.805C164.621 425.76 156.074 399.878 156.074 399.878C156.074 399.878 141.118 405.055 131.046 408.099C128.604 408.708 121.584 416.625 119.447 418.148C117.616 419.365 118.226 433.067 120.058 454.686C123.415 498.532 129.215 567.651 115.174 593.532Z" fill="#FBFBFB"/>
<path d="M115.174 593.532C116.7 594.75 118.837 595.664 121.279 596.577L126.162 587.747C126.162 587.747 130.435 553.949 131.046 528.067C131.656 502.186 127.383 471.128 127.383 471.128L120.973 453.468L120.058 454.381C123.415 498.532 129.215 567.651 115.174 593.532Z" fill="#F5F5F5"/>
<path d="M216.203 323.452C216.203 323.452 218.645 351.465 213.762 366.08C210.099 377.042 195.753 387.09 183.544 387.09C149.97 387.09 143.865 341.721 144.17 339.285C144.476 337.154 193.617 317.971 193.617 317.971L216.203 323.452Z" fill="#FFE4C9"/>
<path d="M126.468 406.577C125.857 406.272 124.941 405.663 124.331 405.359C120.363 402.923 117.006 400.792 115.479 396.224C113.038 389.83 111.817 380.391 115.174 374.301C117.311 370.038 121.584 367.603 124.331 363.644C128.299 358.468 129.52 351.769 129.825 345.375C130.13 338.981 129.825 332.282 131.046 326.192C133.488 315.535 136.54 305.183 144.781 298.18C158.211 286.913 185.071 280.519 199.416 293.003C202.163 295.135 202.468 296.962 206.131 297.571C211.015 298.18 214.067 298.788 218.34 301.224C223.224 303.356 229.023 307.314 228.413 313.708C227.802 317.971 222.919 324.974 219.256 326.801C217.73 327.715 215.898 328.019 214.067 328.019C208.268 328.019 203.689 324.365 198.195 324.974C195.448 325.279 193.006 326.801 191.175 328.933C189.039 331.369 189.344 334.718 187.207 337.154C183.545 340.808 177.745 340.503 173.167 342.939C172.556 343.244 171.641 343.853 171.336 344.462C171.03 345.071 171.03 345.984 170.725 346.897C170.725 349.333 170.42 351.465 170.42 353.901C167.978 352.987 167.978 349.638 166.147 348.115C164.315 346.593 161.568 346.897 159.737 348.42C157.906 349.942 156.99 352.378 156.685 354.51C156.074 357.25 156.99 360.295 157.906 363.035C159.432 367.907 163.4 372.17 166.757 368.821C169.199 372.474 166.452 378.26 166.452 382.218C166.452 385.263 166.452 391.657 169.504 393.788C172.251 395.615 176.524 394.397 176.83 399.269C176.83 403.837 172.556 407.186 167.978 407.795C163.4 408.404 159.127 406.881 154.853 405.359C150.58 404.141 145.697 403.228 141.729 404.75C139.287 405.663 136.845 407.795 134.403 408.099C131.046 408.708 128.604 407.795 126.468 406.577Z" fill="#5B2A12"/>
<path d="M198.195 535.984C192.091 533.853 164.315 476.305 155.159 458.949C149.054 447.683 139.897 445.247 139.897 445.247C128.604 451.337 127.383 465.343 130.741 477.218C144.781 527.154 187.207 567.346 193.617 567.346C185.376 549.382 198.195 535.984 198.195 535.984Z" fill="#FFE6CC"/>
<path d="M128.909 409.013C128.909 409.013 110.291 416.625 113.038 441.593C113.953 449.205 132.877 491.833 132.877 491.833C132.877 491.833 139.592 497.01 149.97 493.965C160.958 490.615 168.283 481.785 168.283 481.785C168.283 481.785 164.01 462.298 163.094 452.25C162.484 445.856 171.03 450.728 171.03 450.728L164.01 416.625L128.909 409.013Z" fill="#FBFBFB"/>
<path d="M318.759 410.231L315.401 398.356C315.401 398.356 311.434 384.045 308.687 384.654C307.16 384.958 307.16 386.176 307.771 389.526C307.771 389.526 308.381 393.484 308.992 396.529C307.16 392.875 302.582 385.263 300.751 386.176C299.225 386.785 299.53 388.003 300.751 391.353C300.751 391.353 301.666 394.093 302.887 396.529C300.751 392.875 298.004 388.612 296.478 389.221C294.951 389.83 295.257 391.048 296.478 394.397C296.478 394.397 299.225 402.01 300.446 403.837C300.751 404.446 301.056 406.272 301.056 408.099C300.14 406.272 298.614 402.314 297.393 400.792C296.172 399.269 294.341 398.965 294.036 400.792C293.731 402.619 297.088 409.013 297.393 411.753C297.699 414.189 298.309 427.587 298.309 427.587L301.666 415.407L305.634 409.926C305.634 411.753 305.634 412.971 305.634 412.971L308.992 408.404C308.687 410.535 308.381 412.058 308.381 412.058L318.759 410.231Z" fill="#FFE4C9"/>
<path d="M228.413 480.567C231.16 476.609 232.686 472.042 232.686 467.17C232.991 455.904 242.453 447.378 249.778 444.334C250.999 442.811 256.493 436.721 257.714 435.808C259.24 434.59 262.293 432.763 262.293 432.763C265.345 430.936 265.345 433.372 264.124 435.199C262.903 436.721 259.545 439.766 258.019 441.593C257.409 442.507 256.188 444.334 254.967 445.856C255.578 446.16 257.104 446.769 257.714 447.378C258.325 448.292 258.019 450.728 258.019 450.728C258.019 450.728 258.935 451.032 259.851 452.25C260.766 453.468 259.851 456.513 259.851 456.513C259.851 456.513 260.766 457.731 260.766 458.949C260.766 460.167 257.714 466.257 257.714 466.257C256.798 468.997 255.272 471.737 252.831 474.173C250.389 476 248.252 478.436 245.81 483.003C230.549 511.93 216.204 547.859 210.404 554.862C210.404 554.862 197.28 582.266 177.745 554.253C178.05 549.382 214.677 499.141 228.413 480.567Z" fill="#FFE6CC"/>
<path d="M10.7874 372.17C10.7874 372.17 19.9441 349.942 47.1091 355.728" stroke="#FFFAF5" stroke-width="2" stroke-miterlimit="10" stroke-linecap="round"/>
<path d="M23.912 379.782C23.912 379.782 29.1009 367.298 44.3621 370.648" stroke="#FFFAF5" stroke-width="2" stroke-miterlimit="10" stroke-linecap="round"/>
<path d="M35.2053 386.176C35.2053 386.176 37.0367 381.913 42.5307 382.827" stroke="#FFFAF5" stroke-width="2" stroke-miterlimit="10" stroke-linecap="round"/>
<path d="M636 130H522.171V722H636V130Z" fill="#2AB6BB"/>
<path d="M572.306 130H356V722H572.306V130Z" fill="#2BCCD1"/>
<path d="M551.18 200.813H373.973V415.457H551.18V200.813Z" fill="#2AB6BB"/>
<path d="M413.387 200.813V378.948L373.973 415.142H551.18V200.813H413.387Z" fill="#FFB340"/>
<path d="M551.18 224.418H435.144V316.003H551.18V224.418Z" fill="#1B1E23"/>
<path d="M441.766 231.971H424.423V240.784H441.766C444.288 240.784 446.18 238.895 446.18 236.377C446.18 233.86 444.288 231.971 441.766 231.971Z" fill="white"/>
<path d="M441.766 250.225H424.423V259.038H441.766C444.288 259.038 446.18 257.149 446.18 254.632C446.18 252.114 444.288 250.225 441.766 250.225Z" fill="white"/>
<path d="M441.766 270.053H424.423V278.866H441.766C444.288 278.866 446.18 276.977 446.18 274.459C446.18 272.256 444.288 270.053 441.766 270.053Z" fill="white"/>
<path d="M441.766 288.622H424.423V297.434H441.766C444.288 297.434 446.18 295.546 446.18 293.028C446.18 290.51 444.288 288.622 441.766 288.622Z" fill="white"/>
<path d="M551.18 337.09H413.387V378.949H551.18V337.09Z" fill="#52DEE3"/>
<path d="M431.045 367.618C436.269 367.618 440.504 363.391 440.504 358.177C440.504 352.962 436.269 348.735 431.045 348.735C425.821 348.735 421.586 352.962 421.586 358.177C421.586 363.391 425.821 367.618 431.045 367.618Z" fill="white"/>
<path d="M551.18 346.217H493.162V370.136H551.18V346.217Z" fill="#2BCCD1"/>
<path d="M551.18 354.4H499.469V361.009H551.18V354.4Z" fill="white"/>
<path d="M482.441 348.735H445.865V367.618H482.441V348.735Z" fill="#2AB6BB"/>
<path d="M509.559 321.668H476.766V328.592H509.559V321.668Z" fill="white"/>
<path d="M551.18 427.416H373.973V468.96H551.18V427.416Z" fill="#2AB6BB"/>
<path d="M517.757 436.858H404.559V459.833H517.757V436.858Z" fill="#2BCCD1"/>
<path d="M507.351 445.041H414.333V451.65H507.351V445.041Z" fill="white"/>
<path d="M496.213 539.432C496.757 523.103 483.935 509.426 467.576 508.884C451.216 508.341 437.513 521.139 436.97 537.468C436.426 553.797 449.248 567.474 465.607 568.017C481.967 568.559 495.67 555.762 496.213 539.432Z" fill="white"/>
<path d="M430.73 533.479C430.73 518.687 437.982 505.783 449.333 497.6C429.153 501.691 414.018 519.316 414.018 540.717C414.018 564.951 433.883 584.779 458.162 584.779C467.622 584.779 476.45 581.632 483.703 576.596C480.865 577.226 478.027 577.54 474.874 577.54C450.595 577.54 430.73 557.713 430.73 533.479Z" fill="white"/>
<path d="M519.018 533.479C519.018 509.245 499.153 489.417 474.874 489.417C465.414 489.417 456.586 492.565 449.333 497.6C452.171 496.971 455.009 496.656 458.162 496.656C482.441 496.656 502.306 516.484 502.306 540.718C502.306 555.51 495.054 568.413 483.703 576.596C503.883 572.505 519.018 554.88 519.018 533.479Z" fill="white"/>
<path d="M445.55 508.301C445.55 508.301 437.351 510.504 436.721 524.981C436.405 534.738 451.54 546.383 451.54 546.383L443.342 549.845C443.342 549.845 450.91 554.566 458.793 555.825C464.468 556.454 473.297 555.51 473.297 555.51C473.297 555.51 475.189 531.905 467.622 523.408C463.838 529.702 459.739 537.256 459.739 537.256C459.739 537.256 450.279 523.093 450.91 515.54C451.54 505.468 456.901 504.524 456.901 504.524L445.55 508.301Z" fill="#FFB340"/>
<path d="M528.162 595.165H408.027V602.089H528.162V595.165Z" fill="white"/>
<path d="M528.162 613.419H408.027V620.343H528.162V613.419Z" fill="white"/>
<path d="M551.18 145.736H373.973V182.874H551.18V145.736Z" fill="#FFB340"/>
</svg>
